<?xml version="1.0" encoding="UTF-8"?>
<svg xmlns="http://www.w3.org/2000/svg" viewBox="132 72 252 266" role="img" aria-label="Kintsu Care mark">
  <defs>
    <linearGradient id="tealGradient" x1="145" y1="82" x2="215" y2="329" gradientUnits="userSpaceOnUse">
      <stop offset="0" stop-color="#00AAA5"/>
      <stop offset="1" stop-color="#0AACAe"/>
    </linearGradient>
    <linearGradient id="violetGradient" x1="260" y1="82" x2="260" y2="329" gradientUnits="userSpaceOnUse">
      <stop offset="0" stop-color="#6F41AE"/>
      <stop offset="0.52" stop-color="#7040AE"/>
      <stop offset="1" stop-color="#84218E"/>
    </linearGradient>
  </defs>
  <g shape-rendering="geometricPrecision">
    <path d="M 142 234 L 142 316 L 143 317 L 143 319 L 145 321 L 145 322 L 150 326 L 151 326 L 152 327 L 155 327 L 156 328 L 204 328 L 205 327 L 210 327 L 211 326 L 212 326 L 214 324 L 215 324 L 215 323 L 217 321 L 217 320 L 218 319 L 218 311 L 216 309 L 216 308 L 193 285 L 193 284 L 192 284 L 182 274 L 182 273 L 181 272 L 180 272 L 178 270 L 178 269 L 143 234 Z M 211 84 L 210 84 L 209 83 L 206 83 L 205 82 L 156 82 L 155 83 L 152 83 L 151 84 L 150 84 L 148 86 L 147 86 L 144 89 L 144 90 L 143 91 L 143 93 L 142 94 L 142 203 L 144 203 L 214 133 L 214 132 L 216 130 L 216 129 L 217 128 L 217 126 L 218 125 L 218 121 L 219 120 L 219 96 L 218 95 L 218 93 L 217 92 L 216 89 Z" fill="url(#tealGradient)" fill-rule="evenodd"/>
    <path d="M 236 240 L 236 241 L 235 242 L 235 243 L 232 248 L 232 250 L 231 251 L 231 253 L 230 254 L 230 269 L 231 270 L 231 273 L 233 276 L 233 278 L 234 279 L 234 280 L 236 282 L 236 283 L 238 285 L 238 286 L 239 287 L 240 287 L 242 289 L 242 290 L 265 313 L 265 314 L 274 323 L 275 323 L 277 325 L 278 325 L 279 326 L 281 326 L 282 327 L 289 327 L 290 328 L 291 327 L 292 328 L 293 327 L 294 328 L 295 327 L 296 328 L 297 327 L 298 328 L 299 327 L 300 328 L 301 327 L 302 328 L 344 328 L 345 327 L 346 328 L 347 327 L 348 328 L 349 327 L 350 328 L 351 327 L 352 328 L 362 328 L 363 327 L 370 327 L 373 325 L 373 324 L 374 323 L 374 317 L 373 316 L 372 313 L 370 311 L 370 310 L 367 308 L 367 307 L 345 285 L 345 284 L 319 258 L 319 257 L 316 255 L 316 254 L 288 226 L 288 225 L 287 224 L 286 224 L 284 222 L 284 221 L 274 211 L 273 211 L 272 210 L 267 210 L 266 211 L 265 211 Z M 371 84 L 370 84 L 369 83 L 284 83 L 283 84 L 280 84 L 278 86 L 275 87 L 266 96 L 265 96 L 264 97 L 264 98 L 258 104 L 257 104 L 256 105 L 256 106 L 254 108 L 253 108 L 251 110 L 251 111 L 250 112 L 249 112 L 153 208 L 152 208 L 152 209 L 148 213 L 148 215 L 147 216 L 147 221 L 148 222 L 148 224 L 153 229 L 153 230 L 154 231 L 155 231 L 157 233 L 157 234 L 158 234 L 160 236 L 160 237 L 162 239 L 163 239 L 165 241 L 165 242 L 166 242 L 168 244 L 168 245 L 170 247 L 171 247 L 173 249 L 173 250 L 174 250 L 176 252 L 176 253 L 178 255 L 179 255 L 181 257 L 181 258 L 182 258 L 183 259 L 183 260 L 217 294 L 218 294 L 218 255 L 219 254 L 219 251 L 220 250 L 220 248 L 221 247 L 221 245 L 222 244 L 222 243 L 224 241 L 224 240 L 227 237 L 227 236 L 369 94 L 370 94 L 370 93 L 372 91 L 372 86 L 371 85 Z" fill="url(#violetGradient)" fill-rule="evenodd"/>
  </g>
</svg>
