<?xml version="1.0" encoding="UTF-8"?>
<svg xmlns="http://www.w3.org/2000/svg" width="1280" height="427" viewBox="0 0 1280 427" role="img" aria-labelledby="title desc">
  <title id="title">Kintsu — Care. Anywhere.</title>
  <desc id="desc">Clean vector recreation of the supplied Kintsu logo with a transparent background.</desc>
  <defs>
    <linearGradient id="tealGradient" x1="145" y1="82" x2="215" y2="329" gradientUnits="userSpaceOnUse">
      <stop offset="0" stop-color="#00AAA5"/>
      <stop offset="1" stop-color="#0AACAe"/>
    </linearGradient>
    <linearGradient id="violetGradient" x1="260" y1="82" x2="260" y2="329" gradientUnits="userSpaceOnUse">
      <stop offset="0" stop-color="#6F41AE"/>
      <stop offset="0.52" stop-color="#7040AE"/>
      <stop offset="1" stop-color="#84218E"/>
    </linearGradient>
  </defs>
  <g shape-rendering="geometricPrecision">
    <path d="M 142 234 L 142 316 L 143 317 L 143 319 L 145 321 L 145 322 L 150 326 L 151 326 L 152 327 L 155 327 L 156 328 L 204 328 L 205 327 L 210 327 L 211 326 L 212 326 L 214 324 L 215 324 L 215 323 L 217 321 L 217 320 L 218 319 L 218 311 L 216 309 L 216 308 L 193 285 L 193 284 L 192 284 L 182 274 L 182 273 L 181 272 L 180 272 L 178 270 L 178 269 L 143 234 Z M 211 84 L 210 84 L 209 83 L 206 83 L 205 82 L 156 82 L 155 83 L 152 83 L 151 84 L 150 84 L 148 86 L 147 86 L 144 89 L 144 90 L 143 91 L 143 93 L 142 94 L 142 203 L 144 203 L 214 133 L 214 132 L 216 130 L 216 129 L 217 128 L 217 126 L 218 125 L 218 121 L 219 120 L 219 96 L 218 95 L 218 93 L 217 92 L 216 89 Z" fill="url(#tealGradient)" fill-rule="evenodd"/>
    <path d="M 236 240 L 236 241 L 235 242 L 235 243 L 232 248 L 232 250 L 231 251 L 231 253 L 230 254 L 230 269 L 231 270 L 231 273 L 233 276 L 233 278 L 234 279 L 234 280 L 236 282 L 236 283 L 238 285 L 238 286 L 239 287 L 240 287 L 242 289 L 242 290 L 265 313 L 265 314 L 274 323 L 275 323 L 277 325 L 278 325 L 279 326 L 281 326 L 282 327 L 289 327 L 290 328 L 291 327 L 292 328 L 293 327 L 294 328 L 295 327 L 296 328 L 297 327 L 298 328 L 299 327 L 300 328 L 301 327 L 302 328 L 344 328 L 345 327 L 346 328 L 347 327 L 348 328 L 349 327 L 350 328 L 351 327 L 352 328 L 362 328 L 363 327 L 370 327 L 373 325 L 373 324 L 374 323 L 374 317 L 373 316 L 372 313 L 370 311 L 370 310 L 367 308 L 367 307 L 345 285 L 345 284 L 319 258 L 319 257 L 316 255 L 316 254 L 288 226 L 288 225 L 287 224 L 286 224 L 284 222 L 284 221 L 274 211 L 273 211 L 272 210 L 267 210 L 266 211 L 265 211 Z M 371 84 L 370 84 L 369 83 L 284 83 L 283 84 L 280 84 L 278 86 L 275 87 L 266 96 L 265 96 L 264 97 L 264 98 L 258 104 L 257 104 L 256 105 L 256 106 L 254 108 L 253 108 L 251 110 L 251 111 L 250 112 L 249 112 L 153 208 L 152 208 L 152 209 L 148 213 L 148 215 L 147 216 L 147 221 L 148 222 L 148 224 L 153 229 L 153 230 L 154 231 L 155 231 L 157 233 L 157 234 L 158 234 L 160 236 L 160 237 L 162 239 L 163 239 L 165 241 L 165 242 L 166 242 L 168 244 L 168 245 L 170 247 L 171 247 L 173 249 L 173 250 L 174 250 L 176 252 L 176 253 L 178 255 L 179 255 L 181 257 L 181 258 L 182 258 L 183 259 L 183 260 L 217 294 L 218 294 L 218 255 L 219 254 L 219 251 L 220 250 L 220 248 L 221 247 L 221 245 L 222 244 L 222 243 L 224 241 L 224 240 L 227 237 L 227 236 L 369 94 L 370 94 L 370 93 L 372 91 L 372 86 L 371 85 Z" fill="url(#violetGradient)" fill-rule="evenodd"/>
    <path d="M 1038 115 L 1037 116 L 1037 118 L 1036 119 L 1037 120 L 1037 210 L 1038 211 L 1038 214 L 1039 215 L 1039 217 L 1040 218 L 1040 220 L 1041 221 L 1041 222 L 1042 223 L 1042 224 L 1043 225 L 1043 226 L 1045 228 L 1045 229 L 1054 238 L 1055 238 L 1057 240 L 1058 240 L 1060 242 L 1061 242 L 1062 243 L 1063 243 L 1064 244 L 1066 244 L 1067 245 L 1069 245 L 1070 246 L 1071 246 L 1072 247 L 1075 247 L 1076 248 L 1081 248 L 1082 249 L 1106 249 L 1107 248 L 1111 248 L 1112 247 L 1115 247 L 1116 246 L 1119 246 L 1120 245 L 1122 245 L 1123 244 L 1124 244 L 1125 243 L 1126 243 L 1127 242 L 1128 242 L 1129 241 L 1130 241 L 1132 239 L 1133 239 L 1135 237 L 1136 237 L 1142 231 L 1142 230 L 1144 228 L 1144 227 L 1146 225 L 1146 224 L 1147 223 L 1147 222 L 1148 221 L 1148 220 L 1149 219 L 1149 217 L 1150 216 L 1150 213 L 1151 212 L 1151 208 L 1152 207 L 1152 116 L 1151 115 L 1126 115 L 1124 117 L 1124 205 L 1123 206 L 1123 208 L 1122 209 L 1122 211 L 1120 213 L 1120 214 L 1118 216 L 1118 217 L 1117 218 L 1116 218 L 1112 222 L 1111 222 L 1110 223 L 1109 223 L 1108 224 L 1106 224 L 1105 225 L 1101 225 L 1100 226 L 1088 226 L 1087 225 L 1084 225 L 1083 224 L 1081 224 L 1080 223 L 1079 223 L 1078 222 L 1077 222 L 1076 221 L 1075 221 L 1069 215 L 1069 214 L 1067 212 L 1067 211 L 1066 210 L 1066 208 L 1065 207 L 1065 203 L 1064 202 L 1064 116 L 1063 115 Z M 784 115 L 783 116 L 783 138 L 784 139 L 822 139 L 823 140 L 823 246 L 850 246 L 850 140 L 851 139 L 889 139 L 890 138 L 890 137 L 891 136 L 890 135 L 890 120 L 891 119 L 890 118 L 890 116 L 889 115 Z M 648 115 L 647 116 L 647 118 L 646 119 L 647 120 L 647 143 L 646 144 L 646 151 L 647 152 L 647 240 L 646 241 L 646 242 L 647 243 L 647 246 L 673 246 L 673 160 L 674 159 L 677 162 L 677 163 L 679 165 L 679 166 L 682 169 L 682 170 L 683 171 L 683 172 L 685 174 L 685 175 L 688 178 L 688 179 L 690 181 L 690 182 L 692 184 L 692 185 L 695 188 L 695 189 L 697 191 L 697 192 L 699 194 L 699 195 L 701 197 L 701 198 L 704 201 L 704 202 L 706 204 L 706 205 L 708 207 L 708 208 L 710 210 L 710 211 L 713 214 L 713 215 L 715 217 L 715 218 L 717 220 L 717 221 L 720 224 L 720 225 L 722 227 L 722 228 L 724 230 L 724 231 L 727 234 L 727 235 L 729 237 L 729 238 L 731 240 L 731 241 L 734 244 L 734 245 L 735 246 L 762 246 L 762 116 L 761 115 L 736 115 L 736 116 L 735 117 L 735 199 L 734 200 L 733 199 L 733 198 L 731 196 L 731 195 L 729 193 L 729 192 L 726 189 L 726 188 L 724 186 L 724 185 L 722 183 L 722 182 L 720 180 L 720 179 L 718 177 L 718 176 L 715 173 L 715 172 L 713 170 L 713 169 L 711 167 L 711 166 L 708 163 L 708 162 L 706 160 L 706 159 L 704 157 L 704 156 L 702 154 L 702 153 L 700 151 L 700 150 L 697 147 L 697 146 L 695 144 L 695 143 L 693 141 L 693 140 L 690 137 L 690 136 L 688 134 L 688 133 L 686 131 L 686 130 L 683 127 L 683 126 L 681 124 L 681 123 L 679 121 L 679 120 L 676 117 L 676 116 L 675 116 L 674 115 Z M 590 115 L 589 116 L 589 118 L 588 119 L 589 120 L 589 241 L 588 242 L 589 243 L 589 246 L 616 246 L 617 245 L 617 117 L 615 115 Z M 454 115 L 452 117 L 452 245 L 453 246 L 479 246 L 480 245 L 480 210 L 481 209 L 481 208 L 495 194 L 498 197 L 498 198 L 501 201 L 501 202 L 504 205 L 504 206 L 507 209 L 507 210 L 510 213 L 510 214 L 513 217 L 513 218 L 515 220 L 515 221 L 518 224 L 518 225 L 521 228 L 521 229 L 523 231 L 523 232 L 526 235 L 526 236 L 529 239 L 529 240 L 532 243 L 532 244 L 534 246 L 567 246 L 567 244 L 564 241 L 564 240 L 561 237 L 561 236 L 558 233 L 558 232 L 555 229 L 555 228 L 552 225 L 552 224 L 549 221 L 549 220 L 546 217 L 546 216 L 543 213 L 543 212 L 540 209 L 540 208 L 536 204 L 536 203 L 534 201 L 534 200 L 530 196 L 530 195 L 527 192 L 527 191 L 523 187 L 523 186 L 520 183 L 520 182 L 517 179 L 517 178 L 514 175 L 514 174 L 519 169 L 519 168 L 526 161 L 526 160 L 534 152 L 534 151 L 542 143 L 542 142 L 550 134 L 550 133 L 557 126 L 557 125 L 564 118 L 564 117 L 565 116 L 564 115 L 533 115 L 526 122 L 526 123 L 519 130 L 519 131 L 513 137 L 513 138 L 507 144 L 507 145 L 502 150 L 502 151 L 496 157 L 496 158 L 490 164 L 490 165 L 484 171 L 484 172 L 481 175 L 480 174 L 480 116 L 479 115 Z M 941 115 L 940 116 L 938 116 L 937 117 L 935 117 L 934 118 L 932 118 L 931 119 L 930 119 L 929 120 L 928 120 L 926 122 L 925 122 L 923 124 L 922 124 L 915 131 L 915 132 L 913 134 L 913 135 L 912 136 L 912 137 L 911 138 L 911 139 L 910 140 L 910 141 L 909 142 L 909 145 L 908 146 L 908 153 L 907 154 L 907 155 L 908 156 L 908 162 L 909 163 L 909 165 L 910 166 L 910 168 L 911 169 L 911 170 L 912 171 L 912 172 L 914 174 L 914 175 L 920 181 L 921 181 L 923 183 L 924 183 L 925 184 L 926 184 L 927 185 L 929 185 L 930 186 L 931 186 L 932 187 L 934 187 L 935 188 L 937 188 L 938 189 L 941 189 L 942 190 L 945 190 L 946 191 L 949 191 L 950 192 L 954 192 L 955 193 L 959 193 L 960 194 L 963 194 L 964 195 L 967 195 L 968 196 L 971 196 L 972 197 L 973 197 L 974 198 L 976 198 L 977 199 L 978 199 L 984 205 L 984 206 L 985 207 L 985 214 L 984 215 L 984 216 L 983 217 L 983 218 L 978 223 L 977 223 L 976 224 L 975 224 L 974 225 L 972 225 L 971 226 L 969 226 L 968 227 L 954 227 L 953 226 L 949 226 L 948 225 L 946 225 L 945 224 L 943 224 L 942 223 L 941 223 L 938 220 L 937 220 L 935 218 L 935 217 L 932 214 L 932 212 L 931 211 L 931 210 L 930 209 L 930 208 L 927 208 L 926 209 L 925 209 L 924 210 L 922 210 L 921 211 L 919 211 L 918 212 L 917 212 L 916 213 L 914 213 L 913 214 L 911 214 L 910 215 L 908 215 L 907 216 L 906 216 L 905 217 L 905 219 L 906 220 L 906 222 L 907 223 L 907 224 L 908 225 L 908 226 L 910 228 L 910 229 L 912 231 L 912 232 L 917 237 L 918 237 L 921 240 L 922 240 L 923 241 L 924 241 L 925 242 L 926 242 L 928 244 L 930 244 L 931 245 L 933 245 L 934 246 L 936 246 L 937 247 L 940 247 L 941 248 L 946 248 L 947 249 L 973 249 L 974 248 L 979 248 L 980 247 L 983 247 L 984 246 L 986 246 L 987 245 L 989 245 L 990 244 L 991 244 L 992 243 L 993 243 L 994 242 L 995 242 L 997 240 L 998 240 L 1000 238 L 1001 238 L 1005 234 L 1005 233 L 1008 230 L 1008 229 L 1009 228 L 1009 227 L 1010 226 L 1010 225 L 1011 224 L 1011 223 L 1012 222 L 1012 220 L 1013 219 L 1013 213 L 1014 212 L 1014 206 L 1013 205 L 1013 200 L 1012 199 L 1012 197 L 1011 196 L 1011 195 L 1010 194 L 1010 192 L 1008 190 L 1008 189 L 1001 182 L 1000 182 L 998 180 L 997 180 L 995 178 L 994 178 L 993 177 L 991 177 L 990 176 L 989 176 L 988 175 L 986 175 L 985 174 L 983 174 L 982 173 L 980 173 L 979 172 L 976 172 L 975 171 L 971 171 L 970 170 L 966 170 L 965 169 L 962 169 L 961 168 L 958 168 L 957 167 L 954 167 L 953 166 L 950 166 L 949 165 L 947 165 L 946 164 L 945 164 L 944 163 L 943 163 L 941 161 L 940 161 L 938 159 L 938 158 L 937 157 L 937 156 L 936 155 L 936 149 L 937 148 L 937 146 L 944 139 L 945 139 L 946 138 L 948 138 L 949 137 L 951 137 L 952 136 L 967 136 L 968 137 L 970 137 L 971 138 L 973 138 L 974 139 L 975 139 L 979 143 L 980 143 L 981 144 L 981 145 L 983 147 L 983 148 L 984 149 L 984 150 L 985 151 L 985 152 L 988 152 L 989 151 L 991 151 L 992 150 L 994 150 L 995 149 L 998 149 L 999 148 L 1001 148 L 1002 147 L 1004 147 L 1005 146 L 1008 146 L 1009 145 L 1010 145 L 1010 142 L 1009 141 L 1009 140 L 1008 139 L 1008 138 L 1007 137 L 1007 136 L 1006 135 L 1006 134 L 1003 131 L 1003 130 L 997 124 L 996 124 L 994 122 L 993 122 L 991 120 L 990 120 L 989 119 L 988 119 L 987 118 L 985 118 L 984 117 L 983 117 L 982 116 L 980 116 L 979 115 L 975 115 L 974 114 L 970 114 L 969 113 L 951 113 L 950 114 L 945 114 L 944 115 Z" fill="#020F36" fill-rule="evenodd"/>
    <path d="M 1054 321 L 1053 322 L 1052 322 L 1050 324 L 1050 329 L 1053 332 L 1058 332 L 1060 330 L 1060 329 L 1061 328 L 1061 325 L 1060 324 L 1060 323 L 1059 322 L 1058 322 L 1057 321 Z M 638 321 L 637 322 L 636 322 L 635 323 L 635 324 L 634 325 L 634 329 L 637 332 L 642 332 L 645 329 L 645 324 L 643 322 L 642 322 L 641 321 Z M 817 295 L 818 296 L 818 299 L 819 300 L 819 302 L 820 303 L 820 305 L 821 306 L 821 308 L 822 309 L 822 311 L 823 312 L 823 313 L 824 314 L 824 317 L 825 318 L 825 320 L 826 321 L 826 323 L 827 324 L 827 326 L 828 327 L 828 329 L 829 330 L 829 331 L 838 331 L 838 329 L 839 328 L 839 326 L 840 325 L 840 322 L 841 321 L 841 320 L 842 319 L 842 316 L 843 315 L 843 313 L 844 312 L 844 310 L 845 309 L 845 307 L 846 306 L 847 307 L 847 309 L 848 310 L 848 311 L 849 312 L 849 315 L 850 316 L 850 318 L 851 319 L 851 321 L 852 322 L 852 325 L 853 326 L 853 328 L 854 329 L 854 331 L 863 331 L 863 329 L 864 328 L 864 326 L 865 325 L 865 323 L 866 322 L 866 320 L 867 319 L 867 317 L 868 316 L 868 314 L 869 313 L 869 311 L 870 310 L 870 308 L 871 307 L 871 305 L 872 304 L 872 302 L 873 301 L 873 299 L 874 298 L 874 296 L 875 295 L 867 295 L 866 296 L 866 297 L 865 298 L 865 301 L 864 302 L 864 304 L 863 305 L 863 307 L 862 308 L 862 310 L 861 311 L 861 313 L 860 314 L 860 317 L 858 319 L 857 318 L 857 316 L 856 315 L 856 313 L 855 312 L 855 310 L 854 309 L 854 306 L 853 305 L 853 303 L 852 302 L 852 299 L 851 298 L 851 296 L 850 295 L 842 295 L 842 296 L 841 297 L 841 299 L 840 300 L 840 303 L 839 304 L 839 305 L 838 306 L 838 309 L 837 310 L 837 312 L 836 313 L 836 315 L 835 316 L 835 318 L 834 319 L 832 317 L 832 315 L 831 314 L 831 312 L 830 311 L 830 309 L 829 308 L 829 306 L 828 305 L 828 302 L 827 301 L 827 298 L 826 297 L 826 295 Z M 812 295 L 803 295 L 803 297 L 802 298 L 802 300 L 801 301 L 801 302 L 800 303 L 800 305 L 799 306 L 799 307 L 798 308 L 798 310 L 797 311 L 797 313 L 796 314 L 796 316 L 795 317 L 795 318 L 794 319 L 793 319 L 792 318 L 792 317 L 791 316 L 791 314 L 790 313 L 790 311 L 789 310 L 789 308 L 788 307 L 788 306 L 787 305 L 787 303 L 786 302 L 786 300 L 785 299 L 785 298 L 784 297 L 784 295 L 775 295 L 775 296 L 776 297 L 776 298 L 777 299 L 777 301 L 778 302 L 778 303 L 779 304 L 779 306 L 780 307 L 780 308 L 781 309 L 781 311 L 782 312 L 782 313 L 783 314 L 783 316 L 784 317 L 784 318 L 785 319 L 785 321 L 786 322 L 786 323 L 787 324 L 787 326 L 788 327 L 788 328 L 789 329 L 789 332 L 788 333 L 788 334 L 787 335 L 787 337 L 786 338 L 786 339 L 785 340 L 785 341 L 784 342 L 784 344 L 783 345 L 783 346 L 782 347 L 782 348 L 790 348 L 791 347 L 791 346 L 792 345 L 792 343 L 793 342 L 793 341 L 794 340 L 794 338 L 795 337 L 795 336 L 796 335 L 796 334 L 797 333 L 797 331 L 798 330 L 798 329 L 799 328 L 799 326 L 800 325 L 800 324 L 801 323 L 801 321 L 802 320 L 802 319 L 803 318 L 803 317 L 804 316 L 804 314 L 805 313 L 805 311 L 806 310 L 806 309 L 807 308 L 807 306 L 808 305 L 808 304 L 809 303 L 809 302 L 810 301 L 810 299 L 811 298 L 811 297 L 812 296 Z M 1018 294 L 1017 295 L 1015 295 L 1014 296 L 1013 296 L 1011 298 L 1010 298 L 1008 300 L 1008 301 L 1007 302 L 1007 303 L 1006 304 L 1006 305 L 1005 306 L 1005 309 L 1004 310 L 1004 317 L 1005 318 L 1005 320 L 1006 321 L 1006 323 L 1008 325 L 1008 326 L 1010 328 L 1011 328 L 1013 330 L 1014 330 L 1015 331 L 1017 331 L 1018 332 L 1028 332 L 1029 331 L 1031 331 L 1032 330 L 1033 330 L 1034 329 L 1035 329 L 1038 326 L 1038 325 L 1039 324 L 1039 322 L 1038 321 L 1035 321 L 1034 320 L 1032 320 L 1032 321 L 1029 324 L 1028 324 L 1027 325 L 1025 325 L 1024 326 L 1023 326 L 1022 325 L 1019 325 L 1018 324 L 1017 324 L 1014 321 L 1014 320 L 1013 319 L 1013 316 L 1014 315 L 1041 315 L 1041 309 L 1040 308 L 1040 305 L 1039 304 L 1039 303 L 1038 302 L 1038 301 L 1033 296 L 1032 296 L 1031 295 L 1029 295 L 1028 294 Z M 1013 306 L 1018 301 L 1021 301 L 1022 300 L 1024 300 L 1025 301 L 1027 301 L 1028 302 L 1029 302 L 1031 304 L 1031 305 L 1032 306 L 1032 309 L 1031 310 L 1014 310 L 1013 309 Z M 997 294 L 993 294 L 992 295 L 990 295 L 989 296 L 988 296 L 984 300 L 983 299 L 983 295 L 976 295 L 976 331 L 983 331 L 984 330 L 984 309 L 985 308 L 985 307 L 989 303 L 991 303 L 992 302 L 996 302 L 997 303 Z M 943 294 L 942 295 L 940 295 L 939 296 L 938 296 L 937 297 L 936 297 L 933 300 L 933 301 L 931 303 L 931 304 L 930 305 L 930 307 L 929 308 L 929 318 L 930 319 L 930 321 L 931 322 L 931 323 L 932 324 L 932 325 L 936 329 L 937 329 L 938 330 L 939 330 L 940 331 L 941 331 L 942 332 L 953 332 L 954 331 L 956 331 L 957 330 L 958 330 L 961 327 L 962 327 L 962 326 L 963 325 L 963 324 L 964 323 L 964 322 L 963 322 L 962 321 L 960 321 L 959 320 L 957 320 L 956 321 L 956 322 L 954 324 L 953 324 L 952 325 L 949 325 L 948 326 L 947 326 L 946 325 L 944 325 L 943 324 L 942 324 L 938 320 L 938 318 L 937 317 L 937 316 L 938 315 L 965 315 L 965 306 L 964 305 L 964 304 L 963 303 L 963 302 L 961 300 L 961 299 L 960 298 L 959 298 L 957 296 L 956 296 L 955 295 L 953 295 L 952 294 Z M 937 308 L 938 307 L 938 306 L 939 305 L 939 304 L 941 302 L 942 302 L 943 301 L 945 301 L 946 300 L 949 300 L 950 301 L 952 301 L 957 306 L 957 309 L 956 310 L 939 310 Z M 734 295 L 734 331 L 742 331 L 742 307 L 743 306 L 743 305 L 745 303 L 746 303 L 748 301 L 754 301 L 755 302 L 756 302 L 759 305 L 759 307 L 760 308 L 760 331 L 768 331 L 768 306 L 767 305 L 767 302 L 766 301 L 766 300 L 762 296 L 761 296 L 760 295 L 759 295 L 758 294 L 750 294 L 749 295 L 748 295 L 747 296 L 746 296 L 743 299 L 742 299 L 741 298 L 741 295 Z M 602 294 L 601 295 L 600 295 L 599 296 L 597 296 L 591 302 L 591 303 L 590 304 L 590 306 L 589 307 L 589 319 L 590 320 L 590 322 L 591 323 L 591 324 L 593 326 L 593 327 L 594 327 L 597 330 L 598 330 L 599 331 L 601 331 L 602 332 L 613 332 L 614 331 L 615 331 L 616 330 L 617 330 L 618 329 L 619 329 L 623 325 L 623 324 L 624 323 L 624 322 L 623 322 L 622 321 L 619 321 L 618 320 L 616 320 L 616 321 L 612 325 L 609 325 L 608 326 L 607 326 L 606 325 L 603 325 L 602 324 L 601 324 L 599 322 L 599 321 L 597 319 L 597 316 L 598 315 L 625 315 L 625 308 L 624 307 L 624 304 L 623 303 L 623 302 L 617 296 L 616 296 L 615 295 L 613 295 L 612 294 Z M 597 309 L 597 307 L 598 306 L 598 305 L 602 301 L 606 301 L 607 300 L 608 300 L 609 301 L 611 301 L 612 302 L 613 302 L 616 305 L 616 306 L 617 307 L 617 308 L 615 310 L 598 310 Z M 581 294 L 577 294 L 576 295 L 574 295 L 573 296 L 572 296 L 568 300 L 567 299 L 567 298 L 568 297 L 567 296 L 567 295 L 560 295 L 560 331 L 568 331 L 568 309 L 569 308 L 569 307 L 572 304 L 573 304 L 574 303 L 577 303 L 578 302 L 580 302 L 581 303 L 581 296 L 582 295 Z M 519 297 L 517 299 L 517 300 L 516 301 L 516 302 L 515 303 L 515 304 L 516 305 L 519 305 L 520 306 L 522 306 L 523 305 L 523 304 L 526 301 L 529 301 L 530 300 L 533 300 L 534 301 L 535 301 L 536 302 L 537 302 L 539 304 L 539 308 L 538 309 L 536 309 L 535 310 L 525 310 L 524 311 L 521 311 L 520 312 L 519 312 L 518 313 L 517 313 L 516 314 L 516 315 L 514 317 L 514 325 L 515 326 L 515 327 L 519 331 L 521 331 L 522 332 L 531 332 L 532 331 L 534 331 L 536 329 L 537 329 L 539 327 L 540 328 L 540 331 L 548 331 L 548 330 L 547 329 L 547 303 L 546 302 L 546 301 L 545 300 L 545 299 L 543 297 L 542 297 L 541 296 L 540 296 L 539 295 L 537 295 L 536 294 L 526 294 L 525 295 L 523 295 L 522 296 L 521 296 L 520 297 Z M 539 315 L 539 320 L 537 322 L 537 323 L 536 324 L 535 324 L 534 325 L 533 325 L 532 326 L 526 326 L 525 325 L 524 325 L 522 323 L 522 319 L 525 316 L 527 316 L 528 315 L 536 315 L 537 314 L 538 314 Z M 884 280 L 884 331 L 892 331 L 892 308 L 893 307 L 893 306 L 897 302 L 898 302 L 899 301 L 904 301 L 905 302 L 906 302 L 907 303 L 908 303 L 909 304 L 909 305 L 910 306 L 910 309 L 911 310 L 911 331 L 919 331 L 918 330 L 918 329 L 919 328 L 918 327 L 918 313 L 919 312 L 918 311 L 918 303 L 917 302 L 917 301 L 916 300 L 916 299 L 913 296 L 912 296 L 911 295 L 909 295 L 908 294 L 901 294 L 900 295 L 898 295 L 897 296 L 896 296 L 893 299 L 892 298 L 892 280 Z M 695 278 L 695 280 L 694 281 L 694 282 L 693 283 L 693 285 L 692 286 L 692 288 L 691 289 L 691 290 L 690 291 L 690 293 L 689 294 L 689 295 L 688 296 L 688 298 L 687 299 L 687 300 L 686 301 L 686 303 L 685 304 L 685 306 L 684 307 L 684 308 L 683 309 L 683 310 L 682 311 L 682 313 L 681 314 L 681 316 L 680 317 L 680 318 L 679 319 L 679 321 L 678 322 L 678 323 L 677 324 L 677 326 L 676 327 L 676 328 L 675 329 L 675 331 L 684 331 L 684 329 L 685 328 L 685 326 L 686 325 L 686 324 L 687 323 L 687 321 L 688 320 L 688 319 L 689 318 L 711 318 L 712 319 L 712 320 L 713 321 L 713 322 L 714 323 L 714 325 L 715 326 L 715 328 L 716 329 L 716 331 L 725 331 L 725 329 L 724 328 L 724 327 L 723 326 L 723 324 L 722 323 L 722 321 L 721 320 L 721 318 L 720 317 L 720 316 L 719 315 L 719 314 L 718 313 L 718 311 L 717 310 L 717 308 L 716 307 L 716 306 L 715 305 L 715 303 L 714 302 L 714 300 L 713 299 L 713 298 L 712 297 L 712 296 L 711 295 L 711 293 L 710 292 L 710 290 L 709 289 L 709 287 L 708 286 L 708 285 L 707 284 L 707 282 L 706 281 L 706 280 L 705 279 L 705 278 Z M 700 288 L 701 289 L 701 290 L 702 291 L 702 292 L 703 293 L 703 295 L 704 296 L 704 298 L 705 299 L 705 301 L 706 302 L 706 303 L 707 304 L 707 306 L 708 307 L 708 308 L 709 309 L 709 310 L 708 311 L 693 311 L 692 310 L 692 308 L 693 307 L 693 305 L 694 304 L 694 302 L 695 301 L 695 300 L 696 299 L 696 297 L 697 296 L 697 295 L 698 294 L 698 292 L 699 291 L 699 289 Z M 470 278 L 469 279 L 468 279 L 467 280 L 466 280 L 465 281 L 464 281 L 462 283 L 461 283 L 458 286 L 458 287 L 456 289 L 456 290 L 455 291 L 455 292 L 454 293 L 454 295 L 453 296 L 453 301 L 452 302 L 452 307 L 453 308 L 453 313 L 454 314 L 454 315 L 455 316 L 455 318 L 456 319 L 456 320 L 458 322 L 458 323 L 461 326 L 462 326 L 465 329 L 466 329 L 467 330 L 469 330 L 470 331 L 472 331 L 473 332 L 485 332 L 486 331 L 489 331 L 490 330 L 491 330 L 492 329 L 493 329 L 494 328 L 495 328 L 500 323 L 500 322 L 502 320 L 502 318 L 503 317 L 503 316 L 501 316 L 500 315 L 497 315 L 496 314 L 495 314 L 494 315 L 494 316 L 493 317 L 493 318 L 489 322 L 488 322 L 487 323 L 486 323 L 485 324 L 481 324 L 480 325 L 478 325 L 477 324 L 474 324 L 473 323 L 471 323 L 468 320 L 467 320 L 465 318 L 465 317 L 464 316 L 464 315 L 463 314 L 463 313 L 462 312 L 462 308 L 461 307 L 461 302 L 462 301 L 462 297 L 463 296 L 463 295 L 464 294 L 464 293 L 467 290 L 467 289 L 468 288 L 469 288 L 470 287 L 471 287 L 472 286 L 473 286 L 474 285 L 484 285 L 485 286 L 487 286 L 493 292 L 493 293 L 494 294 L 494 295 L 495 296 L 496 295 L 498 295 L 499 294 L 502 294 L 503 293 L 503 292 L 502 291 L 502 290 L 501 289 L 501 288 L 499 286 L 499 285 L 497 283 L 496 283 L 494 281 L 493 281 L 491 279 L 489 279 L 488 278 L 485 278 L 484 277 L 475 277 L 474 278 Z" fill="#485469" fill-rule="evenodd"/>
  </g>
</svg>
